<?xml version="1.0" encoding="utf-8"?>
<!-- Generator: Adobe Illustrator 25.2.1, SVG Export Plug-In . SVG Version: 6.00 Build 0)  -->
<svg version="1.1" id="Camada_1" xmlns="http://www.w3.org/2000/svg" xmlns:xlink="http://www.w3.org/1999/xlink" x="0px" y="0px"
	 viewBox="0 0 100 100" style="enable-background:new 0 0 100 100;" xml:space="preserve">
<style type="text/css">
	.st0{fill:#333333;}
</style>
<g>
	<path class="st0" d="M17,82.8C7.8,73.5,3.1,62.5,3.1,49.6c0-12.7,4.6-23.7,13.9-33c9.3-9.3,20.3-13.9,33-13.9
		c12.9,0,23.9,4.6,33,13.8c9.2,9.2,13.7,20.3,13.7,33.1c0,12.9-4.6,23.9-13.8,33.1C73.8,92,62.8,96.6,49.9,96.6
		C37.2,96.6,26.2,92,17,82.8z M88.9,49.6c0-10.9-3.8-20.1-11.3-27.7C70.2,14.4,61,10.6,50.1,10.6C39.2,10.6,30,14.4,22.3,22
		c-7.6,7.6-11.5,16.8-11.5,27.7c0,10.9,3.8,20.1,11.4,27.7c7.6,7.6,16.8,11.4,27.7,11.4c10.9,0,20.1-3.8,27.7-11.4
		C85.1,69.7,88.9,60.5,88.9,49.6z M50.1,54.6c-2.1,0-3.2-1.1-3.2-3.2V20.5c0-0.9,0.3-1.6,1-2.3c0.6-0.6,1.4-1,2.3-1c2,0,3,1.1,3,3.2
		v27.7h21c0.9,0,1.6,0.3,2.3,1c0.6,0.6,1,1.4,1,2.3c0,2.1-1.1,3.2-3.2,3.2H50.1z"/>
</g>
</svg>
